<svg width="120" height="120" viewBox="0 0 120 120" xmlns="http://www.w3.org/2000/svg">
  <defs>
    <linearGradient id="goldGradient" x1="0%" y1="0%" x2="100%" y2="100%">
      <stop offset="0%" style="stop-color:#FFD700;stop-opacity:1" />
      <stop offset="50%" style="stop-color:#FFA500;stop-opacity:1" />
      <stop offset="100%" style="stop-color:#DAA520;stop-opacity:1" />
    </linearGradient>
    
    <linearGradient id="tealGradient" x1="0%" y1="0%" x2="100%" y2="100%">
      <stop offset="0%" style="stop-color:#2F4F4F;stop-opacity:1" />
      <stop offset="100%" style="stop-color:#1B4F72;stop-opacity:1" />
    </linearGradient>
    
    <filter id="dropShadow" x="-20%" y="-20%" width="140%" height="140%">
      <feDropShadow dx="2" dy="4" stdDeviation="3" flood-color="#000000" flood-opacity="0.3"/>
    </filter>
  </defs>
  
  <circle cx="60" cy="60" r="45" fill="url(#goldGradient)" filter="url(#dropShadow)"/>
  <line x1="15" y1="60" x2="105" y2="60" stroke="#FFD700" stroke-width="3" stroke-linecap="round"/>
  <path d="M 60 15 A 45 45 0 0 1 105 60 L 60 60 Z" fill="url(#goldGradient)"/>
  <path d="M 60 60 L 105 60 A 45 45 0 0 1 60 105 Z" fill="url(#goldGradient)"/>
  <path d="M 60 15 A 45 45 0 0 0 15 60 L 60 60 Z" fill="url(#tealGradient)"/>
  <path d="M 60 60 L 15 60 A 45 45 0 0 0 60 105 Z" fill="url(#tealGradient)"/>
  <text x="60" y="110" text-anchor="middle" font-family="Arial, sans-serif" font-size="12" font-weight="bold" fill="#2F4F4F" letter-spacing="1">
    LUXE STAYCATIONS
  </text>
</svg>
